<svg id="Capa_1" data-name="Capa 1" xmlns="http://www.w3.org/2000/svg" viewBox="0 0 453.9 444.37"><defs><style>.cls-1,.cls-5{fill:#343434;}.cls-2,.cls-4{fill:#3372b5;}.cls-3{fill:#fff;}.cls-4{stroke:#3372b5;}.cls-4,.cls-5{stroke-miterlimit:10;}.cls-5{stroke:#343434;stroke-width:0.5px;}</style></defs><path class="cls-1" d="M404.9,24.23H323.09a3.86,3.86,0,0,0-3.56,2.39L210.1,295.78a2.57,2.57,0,0,0,2.38,3.54h9.28a5.32,5.32,0,0,1,5.32,5.31v17.5a5.3,5.3,0,0,1-5.27,5.31l-32.32.31a9.53,9.53,0,0,0-8.47,5.32l-10.14,20.55a3.83,3.83,0,0,0,3.44,5.53h152.3a3.84,3.84,0,0,0,3.43-5.54l-10-20.25a9.54,9.54,0,0,0-8.54-5.31H277a5.31,5.31,0,0,1-5.31-5.31v-18.1a5.31,5.31,0,0,1,5.31-5.31H404.9a18.16,18.16,0,0,0,18.16-18.16V42.39A18.16,18.16,0,0,0,404.9,24.23Z" transform="translate(-23.69 -24.23)"/><path class="cls-2" d="M91.59,24.23A14.65,14.65,0,0,0,76.94,38.88V284.67a14.65,14.65,0,0,0,14.65,14.65h85.66a5.52,5.52,0,0,0,5.11-3.47L289,27.49a2.38,2.38,0,0,0-2.21-3.26Z" transform="translate(-23.69 -24.23)"/><path class="cls-3" d="M173.55,80.61l17.45,10a2.29,2.29,0,0,1,.54,3.54l-60.76,66a2.3,2.3,0,0,0,0,3.1l58.71,64.59a2.3,2.3,0,0,1-.42,3.46l-16.14,10.81a2.29,2.29,0,0,1-3-.37L98.48,163a2.29,2.29,0,0,1,0-3.09l72.22-78.85A2.31,2.31,0,0,1,173.55,80.61Z" transform="translate(-23.69 -24.23)"/><path class="cls-3" d="M323.66,80.61l-17.44,10a2.29,2.29,0,0,0-.55,3.54l60.76,66a2.29,2.29,0,0,1,0,3.1l-58.71,64.59a2.31,2.31,0,0,0,.42,3.46l16.15,10.81a2.3,2.3,0,0,0,3-.37L398.73,163a2.28,2.28,0,0,0,0-3.09L326.5,81.05A2.31,2.31,0,0,0,323.66,80.61Z" transform="translate(-23.69 -24.23)"/><path class="cls-4" d="M24.19,376.66h8.64q9,0,13.65,3.9T51.15,392a16.43,16.43,0,0,1-2.31,9.19,12.93,12.93,0,0,1-6.44,5.06,25.75,25.75,0,0,1-9.14,1.56H24.19Zm9.25,6.62v17.85q4.22-.27,6-2.27c1.16-1.33,1.74-3.51,1.74-6.56a14.85,14.85,0,0,0-.61-4.58,6.09,6.09,0,0,0-1.81-2.89,5.47,5.47,0,0,0-2.35-1.25A18.81,18.81,0,0,0,33.44,383.28Z" transform="translate(-23.69 -24.23)"/><path class="cls-4" d="M70.84,401.23h7.48q-2.14,7.23-10.69,7.22a11.42,11.42,0,0,1-8.45-3.1q-3.12-3.09-3.12-8.55a10.9,10.9,0,0,1,3.12-8.15,11.27,11.27,0,0,1,8.27-3.06,12.81,12.81,0,0,1,6,1.48A9.47,9.47,0,0,1,77.62,391q1.3,2.46,1.46,7.72H64.27q.2,4.79,3.49,4.78a3.38,3.38,0,0,0,2-.63A2.49,2.49,0,0,0,70.84,401.23ZM64.4,395h6.44a6.52,6.52,0,0,0-.83-3.35,2.59,2.59,0,0,0-2.32-1.08,2.92,2.92,0,0,0-2.53,1A5.82,5.82,0,0,0,64.4,395Z" transform="translate(-23.69 -24.23)"/><path class="cls-4" d="M86.56,400.85q4.55,2.06,6.57,2.06a3.54,3.54,0,0,0,1.83-.44,1.21,1.21,0,0,0,.73-1,1,1,0,0,0-.61-1c-.41-.2-1.93-.74-4.58-1.63a11.4,11.4,0,0,1-4.58-2.53,5,5,0,0,1-1.4-3.62,6.07,6.07,0,0,1,2.79-5.11,11.9,11.9,0,0,1,7.13-2,27.68,27.68,0,0,1,10.32,2.56L101.34,393a16.19,16.19,0,0,0-6.51-1.87q-2.19,0-2.19,1.35a1.35,1.35,0,0,0,.81,1.13,12.75,12.75,0,0,0,2.94,1.06,15.78,15.78,0,0,1,5.82,2.57A4.66,4.66,0,0,1,104,401a6.39,6.39,0,0,1-2.86,5.37,12.18,12.18,0,0,1-7.33,2.09,24.36,24.36,0,0,1-10.32-2.58Z" transform="translate(-23.69 -24.23)"/><path class="cls-4" d="M124.69,407.78V405h-.12a13.06,13.06,0,0,1-3.13,2.68,7.11,7.11,0,0,1-3.56.86,7.63,7.63,0,0,1-6.38-3.12c-1.58-2.09-2.38-4.91-2.38-8.49a12.91,12.91,0,0,1,2.41-8.2,7.7,7.7,0,0,1,6.35-3.06,7.32,7.32,0,0,1,3.58.81,12.06,12.06,0,0,1,3.05,2.57h.12v-2.68h8.89v21.45Zm0-10.84q0-5.34-3.42-5.34t-3.45,5.34q0,5.55,3.58,5.55Q124.69,402.49,124.69,396.94Z" transform="translate(-23.69 -24.23)"/><path class="cls-4" d="M150,386.33v3.59h.12c2.12-2.8,4.35-4.19,6.69-4.19a9.21,9.21,0,0,1,1.44.14v6.64a23.45,23.45,0,0,0-3-.21q-4.87,0-4.88,4.82v10.66h-8.85V386.33Z" transform="translate(-23.69 -24.23)"/><path class="cls-4" d="M172.81,386.33v3.59h.12c2.12-2.8,4.35-4.19,6.69-4.19a9.21,9.21,0,0,1,1.43.14v6.64a23.3,23.3,0,0,0-3-.21q-4.89,0-4.89,4.82v10.66h-8.85V386.33Z" transform="translate(-23.69 -24.23)"/><path class="cls-4" d="M197.66,385.59q6.08,0,9.25,3.08c2.12,2.06,3.17,4.93,3.17,8.59s-1.09,6.37-3.29,8.34-5.24,2.95-9.13,2.95c-3.73,0-6.68-1-8.87-3a10.65,10.65,0,0,1-3.28-8.28c0-3.66,1-6.53,3.13-8.59S193.73,385.59,197.66,385.59Zm.06,16.9a3,3,0,0,0,2.61-1.24,7.61,7.61,0,0,0,.87-4.22,7.43,7.43,0,0,0-.85-4.15,3,3,0,0,0-2.57-1.19,3,3,0,0,0-2.56,1.16c-.59.77-.89,2.18-.89,4.23C194.33,400.68,195.46,402.49,197.72,402.49Z" transform="translate(-23.69 -24.23)"/><path class="cls-4" d="M216.8,374.93h8.88v32.85H216.8Z" transform="translate(-23.69 -24.23)"/><path class="cls-4" d="M234.17,374.93h8.89v32.85h-8.89Z" transform="translate(-23.69 -24.23)"/><path class="cls-4" d="M261.86,385.59q6.08,0,9.25,3.08c2.12,2.06,3.18,4.93,3.18,8.59s-1.1,6.37-3.3,8.34-5.24,2.95-9.13,2.95c-3.72,0-6.68-1-8.87-3a10.65,10.65,0,0,1-3.28-8.28c0-3.66,1-6.53,3.13-8.59S257.93,385.59,261.86,385.59Zm.06,16.9a3,3,0,0,0,2.61-1.24,7.61,7.61,0,0,0,.87-4.22,7.43,7.43,0,0,0-.85-4.15,3,3,0,0,0-2.57-1.19,3,3,0,0,0-2.56,1.16c-.59.77-.89,2.18-.89,4.23C258.53,400.68,259.66,402.49,261.92,402.49Z" transform="translate(-23.69 -24.23)"/><path class="cls-4" d="M303.14,400.44v7.39a22.34,22.34,0,0,1-5.25.72q-8,0-13-4.61a15.72,15.72,0,0,1-5-12.11,14.8,14.8,0,0,1,5-11.5,18.33,18.33,0,0,1,12.73-4.54,23.57,23.57,0,0,1,5.5.61v7.41a20.35,20.35,0,0,0-5-.67,7.87,7.87,0,0,0-6,2.52,8.93,8.93,0,0,0-2.39,6.41,9.05,9.05,0,0,0,2.4,6.63,8.59,8.59,0,0,0,6.4,2.43A18.38,18.38,0,0,0,303.14,400.44Z" transform="translate(-23.69 -24.23)"/><path class="cls-4" d="M317.88,386.33v3.59H318c2.12-2.8,4.35-4.19,6.69-4.19a9.32,9.32,0,0,1,1.44.14v6.64a23.45,23.45,0,0,0-3-.21q-4.87,0-4.88,4.82v10.66h-8.86V386.33Z" transform="translate(-23.69 -24.23)"/><path class="cls-4" d="M345.36,401.23h7.48q-2.13,7.23-10.69,7.22a11.42,11.42,0,0,1-8.45-3.1q-3.12-3.09-3.12-8.55a10.9,10.9,0,0,1,3.12-8.15,11.27,11.27,0,0,1,8.27-3.06,12.88,12.88,0,0,1,6,1.48,9.49,9.49,0,0,1,4.18,3.92q1.31,2.46,1.46,7.72H338.79q.19,4.79,3.49,4.78a3.38,3.38,0,0,0,2-.63A2.49,2.49,0,0,0,345.36,401.23Zm-6.44-6.2h6.44a6.63,6.63,0,0,0-.82-3.35,2.62,2.62,0,0,0-2.33-1.08,2.92,2.92,0,0,0-2.53,1A5.82,5.82,0,0,0,338.92,395Z" transform="translate(-23.69 -24.23)"/><path class="cls-4" d="M374,407.78V405h-.13a12.87,12.87,0,0,1-3.13,2.68,7.07,7.07,0,0,1-3.55.86,7.6,7.6,0,0,1-6.38-3.12c-1.59-2.09-2.38-4.91-2.38-8.49a12.85,12.85,0,0,1,2.41-8.2,7.69,7.69,0,0,1,6.35-3.06,7.3,7.3,0,0,1,3.57.81,11.89,11.89,0,0,1,3,2.57H374v-2.68h8.89v21.45Zm0-10.84q0-5.34-3.42-5.34t-3.45,5.34q0,5.55,3.57,5.55Q374,402.49,374,396.94Z" transform="translate(-23.69 -24.23)"/><path class="cls-4" d="M392,380.62h8.88v5.71h3.45V392H400.8v15.81H392V391.93h-3.36v-5.6H392Z" transform="translate(-23.69 -24.23)"/><path class="cls-4" d="M410.08,379.9a3.1,3.1,0,0,1,1.38-2.54,5.24,5.24,0,0,1,3.29-1.05,5.34,5.34,0,0,1,3.33,1.05,3,3,0,0,1,0,5.07,5.68,5.68,0,0,1-6.61,0A3.11,3.11,0,0,1,410.08,379.9Zm.25,6.43h8.88v21.45h-8.88Z" transform="translate(-23.69 -24.23)"/><path class="cls-4" d="M424.76,386.33h8.68L437,397.94h.12l3.51-11.61h8.79l-8.73,21.45h-7.2Z" transform="translate(-23.69 -24.23)"/><path class="cls-4" d="M464.67,385.59q6.07,0,9.25,3.08c2.12,2.06,3.17,4.93,3.17,8.59s-1.1,6.37-3.29,8.34-5.25,2.95-9.13,2.95-6.68-1-8.87-3a10.65,10.65,0,0,1-3.28-8.28c0-3.66,1-6.53,3.13-8.59S460.74,385.59,464.67,385.59Zm.06,16.9a3,3,0,0,0,2.61-1.24,7.61,7.61,0,0,0,.87-4.22,7.41,7.41,0,0,0-.86-4.15,3,3,0,0,0-2.56-1.19,3.06,3.06,0,0,0-2.57,1.16c-.59.77-.88,2.18-.88,4.23C461.34,400.68,462.47,402.49,464.73,402.49Z" transform="translate(-23.69 -24.23)"/><path class="cls-5" d="M87.55,419.35h13.58v4.37H97.2V438.5H91.44V423.72H87.55Z" transform="translate(-23.69 -24.23)"/><path class="cls-5" d="M109.36,425.3v2.21h.07q2-2.58,4.12-2.58a7.24,7.24,0,0,1,.88.08v4.09a15.57,15.57,0,0,0-1.84-.13c-2,0-3,1-3,3v6.56h-5.45V425.3Z" transform="translate(-23.69 -24.23)"/><path class="cls-5" d="M126.76,438.5v-1.74h-.08a7.73,7.73,0,0,1-1.93,1.65,4.27,4.27,0,0,1-2.18.53,4.69,4.69,0,0,1-3.93-1.92,8.39,8.39,0,0,1-1.47-5.22,7.93,7.93,0,0,1,1.49-5.05,4.75,4.75,0,0,1,3.91-1.88,4.49,4.49,0,0,1,2.19.49,7.23,7.23,0,0,1,1.88,1.59h.08V425.3h5.47v13.2Zm0-6.67c0-2.19-.71-3.29-2.11-3.29s-2.12,1.1-2.12,3.29.73,3.41,2.2,3.41S126.76,434.1,126.76,431.83Z" transform="translate(-23.69 -24.23)"/><path class="cls-5" d="M142.57,425.3v1.79h.1a6,6,0,0,1,4.68-2.22,4.24,4.24,0,0,1,2.86.92,3.1,3.1,0,0,1,1.06,2.48V438.5h-5.46v-8.14a1.52,1.52,0,0,0-.42-1.1,1.39,1.39,0,0,0-1.07-.43c-1.16,0-1.75.56-1.75,1.68v8h-5.44V425.3Z" transform="translate(-23.69 -24.23)"/><path class="cls-5" d="M156.7,434.24a11.7,11.7,0,0,0,4,1.26,2.17,2.17,0,0,0,1.13-.27.75.75,0,0,0,.45-.63.62.62,0,0,0-.38-.59c-.25-.13-1.19-.46-2.81-1a7,7,0,0,1-2.82-1.55,3.08,3.08,0,0,1-.87-2.23,3.76,3.76,0,0,1,1.72-3.15,7.37,7.37,0,0,1,4.39-1.23,17.07,17.07,0,0,1,6.35,1.58l-2.1,3a10,10,0,0,0-4-1.15c-.9,0-1.35.28-1.35.83a.85.85,0,0,0,.5.7,8.75,8.75,0,0,0,1.81.65,9.73,9.73,0,0,1,3.58,1.58,2.87,2.87,0,0,1,1.12,2.32,3.93,3.93,0,0,1-1.77,3.3,7.44,7.44,0,0,1-4.51,1.29,15,15,0,0,1-6.35-1.59Z" transform="translate(-23.69 -24.23)"/><path class="cls-5" d="M172,425.3v-3.06a3.33,3.33,0,0,1,1.57-2.9,7.8,7.8,0,0,1,4.37-1h2.18v4.11h-1.37a1.4,1.4,0,0,0-.95.32,1.11,1.11,0,0,0-.37.86v1.72h2.69v3.47h-2.69v9.73H172v-9.73H170.1V425.3Z" transform="translate(-23.69 -24.23)"/><path class="cls-5" d="M190.33,424.84a7.82,7.82,0,0,1,5.69,1.9,7,7,0,0,1,2,5.29,6.54,6.54,0,0,1-2,5.13,8.13,8.13,0,0,1-5.62,1.81,7.8,7.8,0,0,1-5.46-1.85,6.58,6.58,0,0,1-2-5.09,7.12,7.12,0,0,1,1.93-5.29A7.55,7.55,0,0,1,190.33,424.84Zm0,10.4a1.84,1.84,0,0,0,1.61-.76,4.76,4.76,0,0,0,.53-2.6,4.58,4.58,0,0,0-.52-2.55,1.83,1.83,0,0,0-1.58-.73,1.88,1.88,0,0,0-1.58.71,4.49,4.49,0,0,0-.55,2.6C188.28,434.13,189,435.24,190.37,435.24Z" transform="translate(-23.69 -24.23)"/><path class="cls-5" d="M207.18,425.3v2.21h.08q2-2.58,4.11-2.58a7.37,7.37,0,0,1,.89.08v4.09a15.72,15.72,0,0,0-1.84-.13c-2,0-3,1-3,3v6.56H202V425.3Z" transform="translate(-23.69 -24.23)"/><path class="cls-5" d="M221.42,425.3v1.62a7.13,7.13,0,0,1,4.74-2.08c1.93,0,3.17.76,3.74,2.28a10.4,10.4,0,0,1,2.45-1.73,6,6,0,0,1,2.66-.55q3.81,0,3.81,4.08v9.58h-5.46v-7.79c0-1.27-.54-1.91-1.62-1.91s-1.65.63-1.65,1.88v7.82h-5.47v-8a1.73,1.73,0,0,0-.44-1.21,1.67,1.67,0,0,0-2.31,0,1.71,1.71,0,0,0-.45,1.25v8H216V425.3Z" transform="translate(-23.69 -24.23)"/><path class="cls-5" d="M252.22,438.5v-1.74h-.08a7.7,7.7,0,0,1-1.92,1.65,4.28,4.28,0,0,1-2.19.53A4.7,4.7,0,0,1,244.1,437a8.38,8.38,0,0,1-1.46-5.22,7.92,7.92,0,0,1,1.48-5.05,4.75,4.75,0,0,1,3.91-1.88,4.55,4.55,0,0,1,2.2.49A7.37,7.37,0,0,1,252.1,427h.08V425.3h5.47v13.2Zm0-6.67c0-2.19-.7-3.29-2.11-3.29s-2.12,1.1-2.12,3.29.73,3.41,2.2,3.41S252.22,434.1,252.22,431.83Z" transform="translate(-23.69 -24.23)"/><path class="cls-5" d="M268,425.3v1.62a7.09,7.09,0,0,1,4.73-2.08q2.89,0,3.74,2.28a10.61,10.61,0,0,1,2.45-1.73,6,6,0,0,1,2.66-.55q3.81,0,3.81,4.08v9.58H280v-7.79c0-1.27-.54-1.91-1.62-1.91s-1.65.63-1.65,1.88v7.82h-5.47v-8a1.73,1.73,0,0,0-.44-1.21,1.67,1.67,0,0,0-2.31,0,1.71,1.71,0,0,0-.44,1.25v8h-5.45V425.3Z" transform="translate(-23.69 -24.23)"/><path class="cls-5" d="M296.72,424.84a7.83,7.83,0,0,1,5.7,1.9,7.05,7.05,0,0,1,1.95,5.29,6.5,6.5,0,0,1-2,5.13,8.11,8.11,0,0,1-5.62,1.81,7.76,7.76,0,0,1-5.45-1.85,6.54,6.54,0,0,1-2-5.09,7.11,7.11,0,0,1,1.92-5.29A7.58,7.58,0,0,1,296.72,424.84Zm0,10.4a1.83,1.83,0,0,0,1.61-.76,4.67,4.67,0,0,0,.53-2.6,4.58,4.58,0,0,0-.52-2.55,1.81,1.81,0,0,0-1.58-.73,1.88,1.88,0,0,0-1.58.71,4.51,4.51,0,0,0-.54,2.6C294.68,434.13,295.37,435.24,296.76,435.24Z" transform="translate(-23.69 -24.23)"/><path class="cls-5" d="M309,434.24a11.7,11.7,0,0,0,4,1.26,2.17,2.17,0,0,0,1.13-.27.75.75,0,0,0,.45-.63.6.6,0,0,0-.38-.59c-.25-.13-1.19-.46-2.81-1a7,7,0,0,1-2.82-1.55,3.08,3.08,0,0,1-.87-2.23,3.76,3.76,0,0,1,1.72-3.15,7.37,7.37,0,0,1,4.39-1.23,17.07,17.07,0,0,1,6.35,1.58l-2.1,3a10,10,0,0,0-4-1.15c-.9,0-1.35.28-1.35.83a.85.85,0,0,0,.5.7,8.75,8.75,0,0,0,1.81.65,9.73,9.73,0,0,1,3.58,1.58,2.87,2.87,0,0,1,1.12,2.32,3.93,3.93,0,0,1-1.77,3.3,7.44,7.44,0,0,1-4.51,1.29,15,15,0,0,1-6.35-1.59Z" transform="translate(-23.69 -24.23)"/><path class="cls-5" d="M334.06,421.34a1.91,1.91,0,0,1,.84-1.56,3.24,3.24,0,0,1,2-.65,3.3,3.3,0,0,1,2.05.65,1.91,1.91,0,0,1,.84,1.56,1.94,1.94,0,0,1-.84,1.56,3.3,3.3,0,0,1-2.05.65,3.26,3.26,0,0,1-2-.65A1.93,1.93,0,0,1,334.06,421.34Zm.15,4h5.46v13.2h-5.46Z" transform="translate(-23.69 -24.23)"/><path class="cls-5" d="M353.35,418.29h5.43V438.5h-5.47v-1.74h-.07a5.29,5.29,0,0,1-4.12,2.18,4.67,4.67,0,0,1-3.88-1.92,8.24,8.24,0,0,1-1.47-5.14,8,8,0,0,1,1.5-5.1,4.8,4.8,0,0,1,4-1.91,5.6,5.6,0,0,1,4.11,2Zm0,13.51c0-2.17-.69-3.26-2.07-3.26s-2.12,1.15-2.12,3.46a4.19,4.19,0,0,0,.57,2.37,1.83,1.83,0,0,0,1.59.84,1.64,1.64,0,0,0,1.48-.89A4.76,4.76,0,0,0,353.35,431.8Z" transform="translate(-23.69 -24.23)"/><path class="cls-5" d="M371.84,434.47h4.6q-1.32,4.44-6.58,4.44a6.6,6.6,0,0,1-7.12-7.17,6.71,6.71,0,0,1,1.92-5,6.93,6.93,0,0,1,5.09-1.89,7.86,7.86,0,0,1,3.68.91,5.9,5.9,0,0,1,2.58,2.42,11.17,11.17,0,0,1,.9,4.75H367.8c.07,2,.79,2.94,2.14,2.94a2.08,2.08,0,0,0,1.24-.39A1.57,1.57,0,0,0,371.84,434.47Zm-4-3.82h4a4.07,4.07,0,0,0-.51-2.06,1.62,1.62,0,0,0-1.43-.67,1.81,1.81,0,0,0-1.56.65A3.61,3.61,0,0,0,367.87,430.65Z" transform="translate(-23.69 -24.23)"/><path class="cls-5" d="M389.48,438.5v-1.74h-.08a7.7,7.7,0,0,1-1.92,1.65,4.28,4.28,0,0,1-2.19.53,4.7,4.7,0,0,1-3.93-1.92,8.38,8.38,0,0,1-1.46-5.22,7.92,7.92,0,0,1,1.48-5.05,4.75,4.75,0,0,1,3.91-1.88,4.53,4.53,0,0,1,2.2.49,7.56,7.56,0,0,1,1.88,1.59h.07V425.3h5.47v13.2Zm0-6.67c0-2.19-.7-3.29-2.11-3.29s-2.12,1.1-2.12,3.29.73,3.41,2.2,3.41S389.48,434.1,389.48,431.83Z" transform="translate(-23.69 -24.23)"/><path class="cls-5" d="M400.49,434.24a11.58,11.58,0,0,0,4,1.26,2.14,2.14,0,0,0,1.12-.27.74.74,0,0,0,.46-.63.62.62,0,0,0-.38-.59c-.25-.13-1.19-.46-2.82-1a7.19,7.19,0,0,1-2.82-1.55,3.11,3.11,0,0,1-.86-2.23,3.73,3.73,0,0,1,1.72-3.15,7.34,7.34,0,0,1,4.38-1.23,17.16,17.16,0,0,1,6.36,1.58l-2.11,3a9.92,9.92,0,0,0-4-1.15c-.9,0-1.35.28-1.35.83a.83.83,0,0,0,.49.7,8.9,8.9,0,0,0,1.82.65,9.81,9.81,0,0,1,3.58,1.58,2.89,2.89,0,0,1,1.11,2.32,3.92,3.92,0,0,1-1.76,3.3,7.46,7.46,0,0,1-4.51,1.29,15,15,0,0,1-6.35-1.59Z" transform="translate(-23.69 -24.23)"/><path class="cls-5" d="M158.67,463.85h4.6q-1.32,4.44-6.58,4.44a6.6,6.6,0,0,1-7.12-7.17,6.71,6.71,0,0,1,1.92-5,6.93,6.93,0,0,1,5.09-1.89,7.86,7.86,0,0,1,3.68.91,5.84,5.84,0,0,1,2.58,2.42,11.17,11.17,0,0,1,.9,4.75h-9.11c.07,2,.79,2.94,2.14,2.94a2.08,2.08,0,0,0,1.24-.39A1.57,1.57,0,0,0,158.67,463.85Zm-4-3.82h4a4.07,4.07,0,0,0-.51-2.06,1.62,1.62,0,0,0-1.43-.67,1.79,1.79,0,0,0-1.56.65A3.61,3.61,0,0,0,154.7,460Z" transform="translate(-23.69 -24.23)"/><path class="cls-5" d="M173.15,454.68v1.79h.1a5.93,5.93,0,0,1,4.67-2.22,4.25,4.25,0,0,1,2.87.92,3.1,3.1,0,0,1,1.06,2.48v10.23h-5.47v-8.14a1.5,1.5,0,0,0-.41-1.1,1.41,1.41,0,0,0-1.07-.43c-1.17,0-1.75.56-1.75,1.68v8H167.7v-13.2Z" transform="translate(-23.69 -24.23)"/><path class="cls-5" d="M197.48,463.62a11.64,11.64,0,0,0,4,1.26,2.17,2.17,0,0,0,1.13-.27.75.75,0,0,0,.45-.63.62.62,0,0,0-.38-.59c-.25-.13-1.19-.46-2.82-1a7.06,7.06,0,0,1-2.81-1.55,3.08,3.08,0,0,1-.87-2.23,3.73,3.73,0,0,1,1.72-3.15,7.37,7.37,0,0,1,4.39-1.23,17.11,17.11,0,0,1,6.35,1.58l-2.11,3a9.88,9.88,0,0,0-4-1.15c-.9,0-1.35.28-1.35.83a.85.85,0,0,0,.5.7,8.52,8.52,0,0,0,1.81.65,9.81,9.81,0,0,1,3.58,1.58,2.9,2.9,0,0,1,1.12,2.32,3.93,3.93,0,0,1-1.77,3.3,7.46,7.46,0,0,1-4.51,1.29,15,15,0,0,1-6.35-1.59Z" transform="translate(-23.69 -24.23)"/><path class="cls-5" d="M218.84,454.22a7.87,7.87,0,0,1,5.7,1.9,7.05,7.05,0,0,1,2,5.29,6.54,6.54,0,0,1-2,5.13,8.13,8.13,0,0,1-5.62,1.81,7.8,7.8,0,0,1-5.46-1.85,6.58,6.58,0,0,1-2-5.09,7.12,7.12,0,0,1,1.93-5.29A7.55,7.55,0,0,1,218.84,454.22Zm0,10.4a1.84,1.84,0,0,0,1.61-.76,4.76,4.76,0,0,0,.53-2.6,4.58,4.58,0,0,0-.52-2.55,1.83,1.83,0,0,0-1.58-.73,1.88,1.88,0,0,0-1.58.71,4.49,4.49,0,0,0-.55,2.6C216.79,463.51,217.49,464.62,218.88,464.62Z" transform="translate(-23.69 -24.23)"/><path class="cls-5" d="M230.62,447.67h5.47v20.21h-5.47Z" transform="translate(-23.69 -24.23)"/><path class="cls-5" d="M241,454.68h5.47v8.49a1.55,1.55,0,0,0,.4,1.1,1.44,1.44,0,0,0,1.1.44c1.05,0,1.58-.59,1.58-1.77v-8.26H255v7.65a5.56,5.56,0,0,1-1.78,4.45,7.65,7.65,0,0,1-5.15,1.54c-2.5,0-4.31-.52-5.42-1.58A5.19,5.19,0,0,1,241,462.8Z" transform="translate(-23.69 -24.23)"/><path class="cls-5" d="M269.23,463.85v3.44a8.5,8.5,0,0,1-3.93,1,6,6,0,0,1-4.67-1.93,7.39,7.39,0,0,1-1.75-5.18,7.07,7.07,0,0,1,1.8-5,6.09,6.09,0,0,1,4.66-1.94,8,8,0,0,1,3.93,1.08v3.41a5.58,5.58,0,0,0-2-.44,2.88,2.88,0,0,0-2.13.81,2.92,2.92,0,0,0-.81,2.16,3.1,3.1,0,0,0,.79,2.23,2.83,2.83,0,0,0,2.15.82A5.57,5.57,0,0,0,269.23,463.85Z" transform="translate(-23.69 -24.23)"/><path class="cls-5" d="M273.21,450.72a1.9,1.9,0,0,1,.85-1.56,3.51,3.51,0,0,1,4.07,0,1.9,1.9,0,0,1,.85,1.56,1.93,1.93,0,0,1-.85,1.56,3.49,3.49,0,0,1-4.06,0A1.94,1.94,0,0,1,273.21,450.72Zm.15,4h5.47v13.2h-5.47Z" transform="translate(-23.69 -24.23)"/><path class="cls-5" d="M290.4,454.22a7.87,7.87,0,0,1,5.7,1.9,7.05,7.05,0,0,1,1.95,5.29,6.54,6.54,0,0,1-2,5.13,8.13,8.13,0,0,1-5.62,1.81,7.8,7.8,0,0,1-5.46-1.85,6.58,6.58,0,0,1-2-5.09,7.12,7.12,0,0,1,1.93-5.29A7.56,7.56,0,0,1,290.4,454.22Zm0,10.4a1.84,1.84,0,0,0,1.61-.76,4.76,4.76,0,0,0,.53-2.6,4.58,4.58,0,0,0-.52-2.55,1.81,1.81,0,0,0-1.58-.73,1.88,1.88,0,0,0-1.58.71,4.49,4.49,0,0,0-.55,2.6C288.35,463.51,289.05,464.62,290.44,464.62Z" transform="translate(-23.69 -24.23)"/><path class="cls-5" d="M307.48,454.68v1.79h.09a6,6,0,0,1,4.68-2.22,4.25,4.25,0,0,1,2.87.92,3.1,3.1,0,0,1,1.06,2.48v10.23h-5.47v-8.14a1.54,1.54,0,0,0-.41-1.1,1.41,1.41,0,0,0-1.07-.43c-1.17,0-1.75.56-1.75,1.68v8H302v-13.2Z" transform="translate(-23.69 -24.23)"/><path class="cls-5" d="M329.09,463.85h4.6q-1.32,4.44-6.58,4.44a6.6,6.6,0,0,1-7.12-7.17,6.71,6.71,0,0,1,1.92-5,6.93,6.93,0,0,1,5.09-1.89,7.89,7.89,0,0,1,3.68.91,5.84,5.84,0,0,1,2.58,2.42,11.32,11.32,0,0,1,.9,4.75h-9.11c.07,2,.78,2.94,2.14,2.94a2.1,2.1,0,0,0,1.24-.39A1.57,1.57,0,0,0,329.09,463.85Zm-4-3.82h4a4.07,4.07,0,0,0-.51-2.06,1.62,1.62,0,0,0-1.43-.67,1.79,1.79,0,0,0-1.56.65A3.61,3.61,0,0,0,325.12,460Z" transform="translate(-23.69 -24.23)"/><path class="cls-5" d="M338.76,463.62a11.64,11.64,0,0,0,4,1.26,2.17,2.17,0,0,0,1.13-.27.75.75,0,0,0,.45-.63.62.62,0,0,0-.38-.59c-.25-.13-1.19-.46-2.81-1a7,7,0,0,1-2.82-1.55,3.08,3.08,0,0,1-.87-2.23,3.76,3.76,0,0,1,1.72-3.15,7.37,7.37,0,0,1,4.39-1.23A17.11,17.11,0,0,1,350,455.8l-2.11,3a9.88,9.88,0,0,0-4-1.15c-.9,0-1.35.28-1.35.83a.85.85,0,0,0,.5.7,8.52,8.52,0,0,0,1.81.65,9.73,9.73,0,0,1,3.58,1.58,2.87,2.87,0,0,1,1.12,2.32,3.93,3.93,0,0,1-1.77,3.3,7.46,7.46,0,0,1-4.51,1.29,15,15,0,0,1-6.35-1.59Z" transform="translate(-23.69 -24.23)"/></svg>