<?xml version="1.0" encoding="UTF-8" standalone="no"?>
<!-- Created with Inkscape (http://www.inkscape.org/) -->

<svg
   version="1.1"
   id="svg1"
   width="204.8"
   height="204.8"
   viewBox="0 0 204.8 204.8"
   sodipodi:docname="logo-640x640.jpeg"
   xmlns:inkscape="http://www.inkscape.org/namespaces/inkscape"
   xmlns:sodipodi="http://sodipodi.sourceforge.net/DTD/sodipodi-0.dtd"
   xmlns="http://www.w3.org/2000/svg"
   xmlns:svg="http://www.w3.org/2000/svg">
  <defs
     id="defs1" />
  <sodipodi:namedview
     id="namedview1"
     pagecolor="#ffffff"
     bordercolor="#000000"
     borderopacity="0.25"
     inkscape:showpageshadow="2"
     inkscape:pageopacity="0.0"
     inkscape:pagecheckerboard="0"
     inkscape:deskcolor="#d1d1d1">
    <inkscape:page
       x="0"
       y="0"
       width="204.8"
       height="204.8"
       id="page2"
       margin="0"
       bleed="0" />
  </sodipodi:namedview>
  <g
     inkscape:groupmode="layer"
     inkscape:label="Image"
     id="g1">
    <g
       id="g2811">
      <path
         style="fill:#ebebe9"
         d="m 5.5040001,140.736 c -0.2112,-0.2112 -0.384,-1.20157 -0.384,-2.20082 0,-1.09191 -0.1644954,-1.95333 -0.4122713,-2.15897 -0.2267491,-0.18818 -1.3427492,-0.38582 -2.48,-0.43918 L 0.16,135.84 v -1.28 -1.28 l 2.0677288,-0.097 c 1.1372508,-0.0534 2.2532509,-0.25099 2.48,-0.43918 0.2477759,-0.20563 0.4122713,-1.06706 0.4122713,-2.15897 0,-1.87458 0.3630141,-2.58482 1.3211429,-2.58482 1.0260971,0 1.5588571,0.91554 1.5588571,2.67886 0,0.92023 0.1728,1.84594 0.384,2.05714 0.2112,0.2112 1.1248818,0.384 2.0304039,0.384 1.188612,0 1.793661,0.16272 2.176,0.5852 1.132849,1.25178 0.21151,2.2948 -2.027089,2.2948 -2.421445,0 -2.5633149,0.12461 -2.5633149,2.25138 0,1.26689 -0.160885,2.02379 -0.5028571,2.36576 -0.5988864,0.59889 -1.4616637,0.65034 -1.9931429,0.11886 z M 65.975217,111.9332 c -1.562105,-0.52814 -4.058236,-2.91637 -4.693605,-4.49072 -1.157508,-2.86814 -0.514197,-6.60989 1.47913,-8.60322 1.651445,-1.651444 2.949235,-2.256098 5.236398,-2.439689 2.39675,-0.192388 4.62233,0.656726 6.34351,2.420206 3.611119,3.699863 2.489319,10.216053 -2.171237,12.612043 -1.494246,0.76819 -4.649594,1.0236 -6.194196,0.50138 z M 191.424,100.416 c -0.2112,-0.2112 -0.384,-1.136913 -0.384,-2.057141 0,-2.189249 -0.49414,-2.678858 -2.70367,-2.678858 -1.91811,0 -2.59882,-0.509329 -2.29556,-1.717607 0.21837,-0.870079 0.97837,-1.15171 3.125,-1.158023 1.73031,-0.0051 1.87423,-0.216825 1.87423,-2.757402 0,-1.552959 0.0876,-1.78058 0.81182,-2.110579 1.23518,-0.562783 1.87172,0.272778 2.06818,2.714836 l 0.16,1.988775 1.95153,0.16 c 2.06122,0.168995 3.00847,0.672771 3.00847,1.6 0,0.905411 -0.85135,1.361231 -2.66087,1.424645 -0.93086,0.03262 -1.86498,0.16592 -2.0758,0.296219 -0.21518,0.132988 -0.38333,0.939692 -0.38333,1.839059 0,0.881184 -0.14906,1.880685 -0.33126,2.221116 -0.37028,0.69188 -1.57686,0.82284 -2.16474,0.23496 z M 134.72,56.204587 c -2.18673,-0.490221 -2.72829,-0.792179 -4.26431,-2.377648 -1.37123,-1.415366 -1.80011,-2.764837 -1.80103,-5.666938 -0.002,-6.82923 8.02176,-10.411346 13.02715,-5.815708 2.06713,1.897912 2.62263,3.303841 2.63116,6.659265 l 0.007,2.763557 -1.85654,1.927022 c -1.7979,1.866152 -2.44525,2.209302 -5.18346,2.747706 -0.44,0.08652 -1.592,-0.02025 -2.56,-0.237256 z"
         id="path2820" />
      <path
         style="fill:#7686f6"
         d="m 142.02083,155.03416 c -0.0737,-0.0737 -3.54648,-0.14815 -7.71738,-0.16552 -4.1709,-0.0174 -7.60183,-0.12993 -7.62429,-0.25011 -0.18879,-1.01022 -0.14044,-1.65853 0.12372,-1.65853 0.17352,0 0.13617,-0.21606 -0.083,-0.48014 -0.33669,-0.40568 -0.24351,-0.51113 0.60081,-0.68 0.54962,-0.10992 0.9993,-0.31045 0.9993,-0.44562 0,-0.43515 0.98897,-0.64125 1.57416,-0.32807 0.34532,0.18481 0.68307,0.18861 0.86199,0.01 0.16927,-0.16928 7.56144,-0.33276 17.40902,-0.38503 L 165.28,150.56 l 1.1773,-0.73206 c 0.69109,-0.42974 1.45098,-1.29744 1.84,-2.10104 0.6591,-1.36151 0.6627,-1.58 0.6627,-40.15821 0,-32.22528 -0.0746,-38.963496 -0.44059,-39.818967 -0.65262,-1.525285 -2.09192,-2.711026 -3.73703,-3.078703 -0.8017,-0.179175 -5.64695,-0.343495 -10.76723,-0.365156 l -9.30961,-0.03938 0.17054,-1.97324 c 0.0938,-1.085282 0.23512,-2.04524 0.31405,-2.13324 0.0789,-0.088 4.84745,-0.16 10.59669,-0.16 H 166.24 l 1.87401,0.949534 c 1.03071,0.522244 2.42389,1.574231 3.09597,2.33775 2.39658,2.722658 2.24523,0.188515 2.44117,40.872712 0.19277,40.02445 0.091,43.68224 -1.28103,46.02334 -0.96144,1.64059 -2.55257,3.11598 -4.45901,4.1347 -1.32766,0.70943 -1.56285,0.72307 -13.55373,0.78601 -6.71144,0.0352 -12.26289,0.004 -12.33655,-0.0699 z"
         id="path2819" />
      <path
         style="fill:#675feb"
         d="m 73.440001,179.84404 c -9.856,-0.0902 -17.683303,-0.28157 -17.394007,-0.42522 0.289297,-0.14366 28.729297,-0.35966 63.200006,-0.48 58.3528,-0.20373 62.674,-0.25582 62.674,-0.75552 0,-0.31418 -1.88102,-1.97261 -4.53688,-4 -12.15418,-9.27808 -14.26433,-10.83847 -14.91802,-11.0314 -0.3878,-0.11446 -13.74933,-0.22246 -29.69227,-0.24 -31.66847,-0.0349 -74.294886,-0.37651 -74.077646,-0.59375 0.278729,-0.27873 8.814276,-0.36742 55.704816,-0.57886 32.56818,-0.14685 48.2572,-0.11087 48.8,0.11193 0.44,0.1806 2.25495,1.45796 4.03322,2.83857 1.77827,1.38062 6.27826,4.80875 9.99998,7.61807 3.72171,2.80933 6.84203,5.34504 6.93403,5.63492 0.25511,0.80376 -0.16901,1.59374 -1.0317,1.92174 -0.79682,0.30294 -75.89452,0.28892 -109.695529,-0.0205 z m 26.4,-5.77918 c -3.608,-0.11915 -7.026302,-0.2365 -7.596227,-0.26075 -0.873082,-0.0372 -1.024226,-0.15747 -0.96,-0.76411 0.04193,-0.396 0.34952,-0.83123 0.683545,-0.96719 0.334025,-0.13596 4.006025,-0.3173 8.160001,-0.403 4.15397,-0.0857 9.96684,-0.22429 12.91748,-0.30801 5.03581,-0.14287 5.40375,-0.11325 6,0.483 0.79712,0.79712 0.79633,1.11408 -0.005,1.9152 -0.5991,0.59911 -1.02338,0.63622 -6.64,0.58076 -3.3,-0.0326 -8.952,-0.15674 -12.559999,-0.2759 z m -25.12,-18.87175 c -5.984,-0.10513 -10.916,-0.21858 -10.96,-0.25212 -0.044,-0.0335 -0.08,-0.44111 -0.08,-0.90571 0,-1.12488 0.825904,-1.69272 2.48,-1.7051 0.748,-0.006 1.36,-0.14838 1.36,-0.3173 0,-0.16891 -0.396,-0.29566 -0.88,-0.28166 -1.439161,0.0416 -4.346819,-0.39598 -5.12,-0.77055 -0.396,-0.19185 -0.720099,-0.57648 -0.72022,-0.85474 -1.94e-4,-0.44704 0.884388,-0.50593 7.6,-0.50593 5.730362,0 7.663179,0.0984 7.856121,0.4 0.19483,0.30454 2.415868,0.4 9.306667,0.4 4.977921,0 9.131385,-0.0806 9.22992,-0.17915 0.09853,-0.0985 3.830535,-0.15105 8.293331,-0.1167 4.4628,0.0343 11.28218,0.0532 15.15418,0.0418 3.872,-0.0113 15.93346,-0.0295 26.80325,-0.0404 21.97152,-0.0219 21.30658,0.0411 22.66796,-2.1489 L 168.48,146.72 v -39.25644 c 0,-39.149482 -0.002,-39.25884 -0.65977,-40.140223 -0.36287,-0.486085 -1.05718,-1.180689 -1.54289,-1.543564 -0.84215,-0.629166 -1.35707,-0.664075 -11.10023,-0.752523 -7.72966,-0.07017 -10.21717,-0.18703 -10.21735,-0.48 -3.2e-4,-0.487227 17.21766,-0.391703 19.70919,0.109345 1.77431,0.356815 3.33762,1.656164 3.95143,3.284238 0.23267,0.61715 0.33962,13.106185 0.33962,39.658967 0,38.54674 -0.004,38.76561 -0.6627,40.1271 -0.38902,0.8036 -1.14891,1.6713 -1.84,2.10104 l -1.1773,0.73206 -17.11483,0.0908 c -9.84758,0.0523 -17.23975,0.21575 -17.40902,0.38503 -0.17892,0.17892 -0.51667,0.17512 -0.86199,-0.01 -0.58519,-0.31318 -1.57416,-0.10708 -1.57416,0.32807 0,0.13517 -0.44968,0.3357 -0.9993,0.44562 -0.84432,0.16887 -0.9375,0.27432 -0.60081,0.68 0.21916,0.26408 0.25651,0.48014 0.083,0.48014 -0.26416,0 -0.31251,0.64831 -0.12372,1.65853 0.047,0.25167 9.90772,0.39918 27.56084,0.41231 12.18228,0.009 12.33511,0.001 13.67111,-0.7128 1.90644,-1.01872 3.49757,-2.49411 4.45901,-4.1347 1.37199,-2.3411 1.4738,-5.99889 1.28103,-46.02334 -0.19594,-40.6842 -0.0446,-38.150057 -2.44117,-40.872715 -0.67208,-0.763519 -2.06526,-1.815506 -3.09597,-2.33775 L 166.24,60.000001 H 155.6 c -5.852,0 -10.64,-0.11503 -10.64,-0.255623 0,-0.140593 4.932,-0.212593 10.96,-0.16 l 10.96,0.09562 1.81483,1.04908 c 2.11763,1.224125 3.57301,2.776149 4.53672,4.837983 l 0.68845,1.47294 V 107.52 148 l -0.91465,1.83408 c -1.07762,2.16084 -2.83983,3.85189 -5.12069,4.91389 l -1.64466,0.76578 -40.32,-0.0648 c -22.176,-0.0356 -45.215999,-0.15076 -51.199999,-0.25588 z m 1.573333,-90.526442 c -0.07333,-0.07333 -0.13292,-1.225334 -0.132415,-2.56 l 9.17e-4,-2.426667 h 9.199083 9.199082 l 0.05936,1.92 c 0.109513,3.542283 1.092727,3.2 -9.192044,3.2 -4.950357,0 -9.060649,-0.06 -9.133983,-0.133333 z m 35.557996,-0.02667 c -0.0493,-0.088 -0.0197,-1.312 0.0658,-2.72 l 0.15543,-2.56 8.31914,0.0905 8.31913,0.0905 -0.91539,0.86159 c -0.50347,0.473874 -1.0234,0.829149 -1.1554,0.789498 -0.132,-0.03965 -0.24,0.08752 -0.24,0.282598 0,0.220967 0.30953,0.277003 0.82101,0.148632 0.76415,-0.19179 0.81061,-0.140103 0.67089,0.746401 -0.0847,0.537519 0.0411,1.204662 0.28882,1.531368 0.24141,0.3184 0.44351,0.703358 0.4491,0.855462 0.0105,0.285043 -16.61816,0.169531 -16.77849,-0.116553 z"
         id="path2818" />
      <path
         style="fill:#f99b08"
         d="m 129.95308,75.2618 c -0.17399,-0.325103 -0.39419,-1.300004 -0.48934,-2.166448 -0.26932,-2.452614 -0.51974,-19.852678 -0.28904,-20.08338 0.11312,-0.113118 0.88609,0.430786 1.71772,1.208676 2.1864,2.045128 5.17088,2.695276 8.29104,1.806145 1.04143,-0.296773 1.9217,-0.922794 3.28,-2.332656 l 1.85654,-1.927022 -0.0345,9.876443 c -0.0203,5.809177 -0.18504,10.733018 -0.4,11.956443 l -0.36546,2.08 -6.62529,0.08645 c -6.16491,0.08044 -6.64727,0.04537 -6.94163,-0.504649 z"
         id="path2817" />
      <path
         style="fill:#01c6d4"
         d="m 74.240001,133.2693 c -0.597942,-0.33382 -2.229842,-0.44948 -6.461115,-0.45796 -3.656986,-0.007 -5.735883,-0.13232 -5.872315,-0.35307 -0.342683,-0.55447 -0.567085,-3.98215 -0.339961,-5.19282 0.467533,-2.49217 3.44836,-4.87262 6.563554,-5.24156 2.639183,-0.31258 5.457196,1.28768 6.860979,3.89611 0.582408,1.0822 0.679416,1.74438 0.627759,4.2851 -0.03361,1.65281 -0.177605,3.11889 -0.32,3.25796 -0.142396,0.13907 -0.618901,0.0519 -1.058901,-0.19376 z m 56.361329,-5.77274 c -0.22558,-1.21911 -0.46493,-3.29656 -0.5319,-4.61656 -0.61008,-12.02549 -0.51172,-13.27321 1.22789,-15.57661 3.47972,-4.60746 10.87857,-3.05409 12.42983,2.60961 0.35002,1.27793 0.16363,13.5111 -0.25706,16.87107 l -0.18831,1.50406 -1.48089,0.0959 c -0.81449,0.0528 -1.91289,-0.003 -2.44089,-0.12439 -0.528,-0.12117 -2.51338,-0.26517 -4.41195,-0.32 l -3.45196,-0.0997 -0.24231,0.93656 c -0.21464,0.82962 -0.28914,0.68347 -0.65245,-1.28 z M 108.16,119.62438 c -0.44448,-0.17155 -3.30649,-0.26335 -6.44014,-0.20657 l -5.64014,0.10219 -0.199859,-2.36828 c -0.332575,-3.94092 -0.225503,-15.1262 0.15806,-16.51172 0.723053,-2.611842 4.000899,-4.980456 6.842079,-4.944168 2.57005,0.03282 5.30464,1.847031 6.43131,4.26672 0.67649,1.452858 0.76185,2.088368 0.75721,5.637448 -0.007,5.10721 -0.53728,13.80208 -0.86064,14.10269 -0.13633,0.12674 -0.60788,0.0915 -1.04788,-0.0783 z M 73.383328,62.527705 c -0.108122,-0.281763 -0.01623,-0.623763 0.204208,-0.76 0.296322,-0.183138 0.304823,-0.307017 0.03261,-0.475253 -0.2025,-0.125152 -0.561024,-0.0675 -0.79672,0.128106 -0.285955,0.237322 -2.171137,0.326341 -5.665983,0.267549 l -5.237444,-0.08811 -0.05326,-0.96 c -0.42064,-7.581587 -0.474323,-14.572371 -0.120481,-15.689356 0.683192,-2.156655 1.950603,-3.707563 3.692872,-4.5189 4.017496,-1.870862 8.402971,0.01614 9.764643,4.201572 0.648093,1.992074 0.199154,15.732558 -0.56414,17.266375 -0.615336,1.2365 -0.957223,1.407405 -1.256304,0.628013 z M 109.307,38.320001 c -0.30608,-2.023921 -0.70012,-2.456656 -0.96266,-1.057189 -0.28318,1.509452 -1.25915,1.914636 -3.86434,1.604315 -1.056,-0.125786 -3.23376,-0.262575 -4.839461,-0.303975 -1.605704,-0.0414 -3.062059,-0.163403 -3.236345,-0.271118 -0.556959,-0.344219 -1.102911,-6.883319 -1.154325,-13.825825 l -0.04987,-6.733792 0.96,-1.859336 c 1.862789,-3.607863 6.347761,-5.288139 9.963371,-3.732742 2.26256,0.973324 4.09943,2.961139 4.72913,5.117742 1.12942,3.868004 0.22955,22.42192 -1.08747,22.42192 -0.1388,0 -0.34491,-0.612 -0.45803,-1.36 z"
         id="path2816" />
      <path
         style="fill:#fa622d"
         d="m 134.28482,94.215753 c -1.97679,-0.63 -4.48968,-3.060825 -4.97644,-4.813923 -0.21975,-0.791438 -0.32707,-5.129791 -0.29589,-11.961829 0.035,-7.672515 0.10935,-9.628364 0.2615,-6.88 0.31692,5.724485 -0.29025,5.309671 7.62072,5.206448 l 6.62529,-0.08645 0.36546,-2.08 c 0.21694,-1.234717 0.3795,-6.230558 0.4,-12.293333 0.019,-5.617334 0.13236,-10.115511 0.25193,-9.995951 0.35201,0.352019 0.12949,36.361073 -0.23302,37.707344 -1.08745,4.038479 -5.87083,6.519882 -10.01955,5.197692 z"
         id="path2815" />
      <path
         style="fill:#5b39ee"
         d="m 19.209034,179.80378 c -0.849668,-0.33908 -1.276294,-0.83625 -1.284134,-1.49644 -0.0082,-0.68738 15.067664,-16.01608 16.10883,-16.37903 0.935262,-0.32604 64.166598,-0.50197 63.842264,-0.17763 -0.08287,0.0829 -8.206871,0.1742 -18.053334,0.20296 -9.846462,0.0288 -18.694659,0.15669 -19.662659,0.28427 -0.968,0.12759 5.08,0.28627 13.44,0.35261 13.339316,0.10586 11.859852,0.14076 -12.085791,0.28506 l -27.285792,0.16442 -7.405446,7.42548 c -6.362141,6.37934 -7.347625,7.49514 -6.995027,7.92 0.36491,0.43969 4.318118,0.50308 35.651238,0.57166 19.38245,0.0424 27.536818,0.11437 18.120818,0.15987 -9.416,0.0455 -17.336,0.19079 -17.6,0.32286 -0.264,0.13208 7.584,0.31395 17.44,0.40417 13.859852,0.12687 9.835954,0.17665 -17.76,0.21971 -22.845805,0.0357 -35.964513,-0.0579 -36.470967,-0.25997 z m 15.190967,-25.07692 c -1.367366,-0.55404 -2.352886,-1.25503 -3.42396,-2.43544 -2.922357,-3.22067 -2.644886,1.26721 -2.74202,-44.35004 l -0.08598,-40.378628 0.875891,-1.861376 c 1.159705,-2.464513 3.370032,-4.595945 5.684575,-5.48167 1.763105,-0.674702 2.25763,-0.699705 13.83915,-0.699705 9.57068,0 11.943877,0.08126 11.681744,0.4 -0.404102,0.491365 -0.437327,4.4 -0.0374,4.4 0.1584,0 0.288,0.144 0.288,0.32 0,0.207496 -4.111964,0.32 -11.695891,0.32 -12.809765,0 -12.707879,-0.01373 -14.345992,1.933059 l -0.838117,0.996045 V 107.2373 c 0,38.78073 0.0093,39.36638 0.643139,40.60886 1.202862,2.3578 1.339092,2.38275 13.545403,2.481 6.091707,0.049 11.30599,-0.0447 11.92,-0.2142 0.820701,-0.22661 1.091458,-0.20211 1.091458,0.0988 0,0.22008 0.324,0.5571 0.72,0.74895 0.773181,0.37457 3.680839,0.81217 5.12,0.77055 0.484,-0.014 0.88,0.11275 0.88,0.28166 0,0.16892 -0.612,0.3117 -1.36,0.3173 -1.654096,0.0124 -2.48,0.58022 -2.48,1.7051 0,0.4646 0.036,0.87217 0.08,0.90571 0.044,0.0335 4.976,0.14699 10.96,0.25212 8.445342,0.14836 5.366216,0.20462 -13.76,0.25141 l -24.64,0.0603 z"
         id="path2814" />
      <path
         style="fill:#01a3d5"
         d="m 95.465421,149.68 c -0.138794,-0.22 -0.307492,-10.85542 -0.374884,-23.63428 -0.137845,-26.137937 -0.175282,-25.64068 2.12225,-28.188964 2.04991,-2.273635 4.974563,-3.040912 8.189043,-2.148379 1.65158,0.458578 4.09482,2.923938 4.60703,4.648753 0.29301,0.98668 0.39114,7.34049 0.39114,25.32576 0,21.59754 -0.0508,24.02815 -0.50617,24.20288 -0.27839,0.10683 -3.5819,0.19423 -7.34112,0.19423 -5.120028,0 -6.898254,-0.10036 -7.087289,-0.4 z m 14.294109,-35.14388 c 0.16708,-2.71487 0.30612,-6.73612 0.30899,-8.93612 0.005,-3.54908 -0.0807,-4.18459 -0.75721,-5.637448 -0.82444,-1.7706 -2.35604,-3.14273 -4.27066,-3.82599 -2.64423,-0.943631 -5.07039,-0.354548 -7.164513,1.739575 -0.917851,0.91785 -1.619031,1.972115 -1.838216,2.763863 -0.383563,1.38552 -0.490635,12.5708 -0.15806,16.51172 l 0.199859,2.36828 5.64014,-0.10219 c 3.13365,-0.0568 5.99566,0.035 6.44014,0.20657 0.44,0.16981 0.91155,0.20505 1.04788,0.0783 0.13634,-0.12675 0.38458,-2.45171 0.55165,-5.16657 z M 130,149.85417 l -0.72,-0.13868 0.007,-19.89774 c 0.007,-18.56538 0.0461,-19.98346 0.59052,-21.17775 0.96909,-2.12587 2.1195,-3.22103 4.2014,-3.9996 3.41884,-1.27856 6.81688,-0.24513 8.94801,2.72131 l 1.13304,1.57715 0.089,20.36877 0.089,20.36876 -1.00904,0.2018 c -1.1014,0.22028 -12.16416,0.20034 -13.32904,-0.024 z m 4.94805,-21.91449 c 1.89857,0.0548 3.88395,0.19883 4.41195,0.32 0.528,0.12118 1.6264,0.17715 2.44089,0.12439 l 1.48089,-0.0959 0.18831,-1.50406 c 0.42069,-3.35997 0.60708,-15.59314 0.25706,-16.87107 -1.55126,-5.6637 -8.95011,-7.21707 -12.42983,-2.60961 -1.73961,2.3034 -1.83797,3.55112 -1.22789,15.57661 0.067,1.32 0.30632,3.39745 0.5319,4.61656 0.36331,1.96347 0.43781,2.10962 0.65245,1.28 l 0.24231,-0.93656 z m -73.748049,21.60839 c -0.308976,-0.12467 -0.4,-2.63354 -0.4,-11.02501 0,-12.10797 0.01762,-12.22522 2.175624,-14.4812 3.769949,-3.94111 10.01366,-3.01437 12.653683,1.87814 0.670197,1.24202 0.689889,1.59905 0.663592,12.03137 -0.0149,5.91325 -0.118386,10.98925 -0.229957,11.28 -0.180624,0.4707 -0.984251,0.52586 -7.332899,0.50337 -3.921524,-0.0139 -7.310043,-0.0979 -7.530043,-0.18667 z M 75.618902,130.2051 c 0.05166,-2.54072 -0.04535,-3.2029 -0.627759,-4.2851 -1.403783,-2.60843 -4.221796,-4.20869 -6.860979,-3.89611 -3.115194,0.36894 -6.096021,2.74939 -6.563554,5.24156 -0.227124,1.21067 -0.0027,4.63835 0.339961,5.19282 0.136432,0.22075 2.215329,0.34575 5.872315,0.35307 4.231273,0.008 5.863173,0.12414 6.461115,0.45796 0.44,0.24564 0.916505,0.33283 1.058901,0.19376 0.142395,-0.13907 0.286395,-1.60515 0.32,-3.25796 z M 61.478559,97.166462 C 61.219325,96.854104 61.10905,89.490651 61.084037,70.822985 61.04956,45.091117 61.053944,44.903987 61.721975,43.594537 c 2.69572,-5.284046 9.4527,-5.97706 12.829294,-1.315807 0.533843,0.736949 1.118341,1.888488 1.298885,2.558976 0.373016,1.385275 0.456998,38.654494 0.105139,46.658025 -0.164952,3.752065 -0.335674,5.074342 -0.711886,5.513725 -0.427338,0.499096 -0.584206,0.519584 -1.149151,0.15009 -0.35984,-0.235349 -1.622065,-0.754543 -2.804943,-1.153766 -1.940095,-0.654784 -2.374054,-0.692707 -4.431816,-0.38729 -1.512544,0.224493 -2.680522,0.615348 -3.466512,1.16004 -1.373673,0.951956 -1.434146,0.964223 -1.912426,0.387932 z m 13.161073,-35.26677 c 0.763294,-1.533817 1.212233,-15.274301 0.56414,-17.266375 -1.361672,-4.185433 -5.747147,-6.072434 -9.764643,-4.201572 -1.742269,0.811337 -3.00968,2.362245 -3.692872,4.5189 -0.353842,1.116985 -0.300159,8.107769 0.120481,15.689356 l 0.05326,0.96 5.237444,0.08811 c 3.494846,0.05879 5.380028,-0.03023 5.665983,-0.267549 0.235696,-0.19561 0.59422,-0.253258 0.79672,-0.128106 0.272211,0.168236 0.26371,0.292115 -0.03261,0.475253 -0.408648,0.252558 -0.211905,1.278728 0.242422,1.264423 0.137524,-0.0043 0.501877,-0.513927 0.809674,-1.132436 z m 27.803898,18.5426 c -0.28241,-0.319217 -0.71214,-0.424176 -1.21745,-0.297352 -1.08638,0.272666 -3.71152,-1.21162 -4.719671,-2.668564 -1.888663,-2.729428 -1.819485,-1.513051 -1.812297,-31.866007 l 0.0066,-27.829631 0.988527,-2.007984 C 97.188265,12.72778 99.753472,11.2 103.36708,11.2 c 3.51523,0 6.75412,2.272585 7.89331,5.538376 0.5447,1.561543 0.57473,3.323448 0.49858,29.252382 -0.0783,26.671096 -0.1023,27.647591 -0.71898,29.295817 -0.91165,2.436601 -2.72739,4.14824 -5.29453,4.990973 -2.44606,0.802985 -2.72498,0.816901 -3.30193,0.164744 z m 7.94782,-41.802291 c 0.44235,-1.230202 0.93931,-9.18071 0.95648,-15.30192 0.0151,-5.397775 -0.4503,-7.248342 -2.30371,-9.159486 -2.86942,-2.958823 -6.62273,-3.433362 -10.116852,-1.279099 -1.443412,0.88992 -2.000542,1.488587 -2.767267,2.973585 l -0.96,1.859336 0.04987,6.733792 c 0.05141,6.942506 0.597366,13.481606 1.154325,13.825825 0.174286,0.107715 1.630641,0.229718 3.236345,0.271118 1.605699,0.0414 3.783459,0.178189 4.839459,0.303975 2.60519,0.310321 3.58116,-0.09486 3.86434,-1.604315 0.26254,-1.399467 0.65658,-0.966732 0.96266,1.057189 0.24618,1.627843 0.57879,1.726 1.08435,0.32 z M 61.03775,25.253109 c -0.8985,-0.523246 -1.895621,-2.816925 -2.064923,-4.749943 -0.447651,-5.111081 3.865316,-9.62714 9.187174,-9.619787 3.682543,0.0051 7.223473,2.441031 8.482687,5.835569 1.050309,2.831379 0.113858,7.920659 -1.572846,8.547871 -1.582526,0.588472 -1.770302,-0.249997 -0.698154,-3.117438 1.397213,-3.736822 -1.405976,-8.006094 -5.637607,-8.586103 -5.125775,-0.702566 -9.066419,5.242639 -6.477273,9.772188 0.445003,0.778507 0.735788,1.606507 0.646188,1.84 -0.192349,0.501255 -1.074761,0.537986 -1.865246,0.07764 z"
         id="path2813" />
      <path
         style="fill:#1e2257"
         d="m 18.348572,180.18089 c -1.096558,-0.66864 -1.579988,-1.65732 -1.168086,-2.3889 0.68896,-1.22367 15.417347,-16.01445 16.329237,-16.39841 0.854797,-0.35992 11.944275,-0.43337 65.280001,-0.43238 63.369186,0.001 64.264466,0.01 65.284636,0.63187 0.5689,0.34687 2.863,2.02679 5.09799,3.73317 2.23499,1.70637 5.08153,3.87918 6.32563,4.82846 1.24411,0.94928 3.70202,2.80714 5.46202,4.12857 3.62754,2.7236 4.31712,3.69045 3.63788,5.1006 -0.24083,0.49999 -0.79788,1.0088 -1.23788,1.1307 -0.44,0.1219 -37.52,0.23545 -82.4,0.25234 -80.038642,0.0301 -81.619353,0.0189 -82.611428,-0.58602 z m 164.803218,-0.32256 c 0.87738,-0.33357 1.34957,-1.35812 0.94773,-2.05632 -0.31091,-0.5402 -1.51133,-1.48846 -9.85952,-7.7885 -3.52,-2.6564 -7.45627,-5.63615 -8.74728,-6.62166 L 163.14544,161.6 H 99.06047 c -42.978648,0 -64.395139,0.10813 -65.02674,0.32831 -1.041166,0.36295 -16.116992,15.69165 -16.10883,16.37903 0.0078,0.66019 0.434466,1.15736 1.284134,1.49644 1.056886,0.42178 162.835286,0.47561 163.942756,0.0546 z M 19.828462,178.3861 c -0.353286,-0.42568 0.627987,-1.53687 6.994598,-7.92062 l 7.405535,-7.42548 63.125704,-0.0932 c 34.719141,-0.0513 63.701701,-0.009 64.405701,0.0941 0.99068,0.14497 2.33834,0.99783 5.9623,3.77324 2.57526,1.97226 6.8626,5.24193 9.52743,7.26593 3.00122,2.2795 4.8102,3.86268 4.75332,4.16 -0.0813,0.42491 -9.37046,0.48926 -80.92773,0.56063 -72.626727,0.0724 -80.877653,0.0303 -81.246858,-0.41453 z M 180.8,177.9388 c 0,-0.16567 -0.756,-0.88126 -1.68,-1.59022 -13.31634,-10.21716 -16.19599,-12.31911 -17.19572,-12.55172 -0.61835,-0.14387 -29.37135,-0.26502 -63.895543,-0.26922 l -62.771266,-0.008 -1.548735,1.23219 C 31.831961,166.24538 20.8,177.5148 20.8,177.93879 c 0,0.18748 30.206171,0.30121 80,0.30121 49.79249,0 80,-0.11373 80,-0.3012 z m -97.830425,-3.22523 c -1.353191,-0.5445 -1.353656,-3.30888 -6.36e-4,-3.788 0.391084,-0.13849 8.661715,-0.2414 18.379181,-0.22868 19.26833,0.0252 18.35301,-0.0646 18.82147,1.84701 0.16474,0.67224 0.0307,1.04494 -0.60439,1.68 l -0.81611,0.8161 -17.53454,-0.0203 c -9.644003,-0.0112 -17.854241,-0.14892 -18.244975,-0.30615 z M 119.04,173.76 c 0.352,-0.352 0.64,-0.784 0.64,-0.96 0,-0.176 -0.288,-0.608 -0.64,-0.96 -0.62373,-0.62373 -1.04476,-0.63919 -16.56,-0.60835 -8.755999,0.0174 -16.697106,0.12541 -17.646903,0.24 -1.934717,0.23343 -2.687897,0.91798 -2.077646,1.88835 0.461943,0.73454 3.958173,0.88976 21.964549,0.97514 13.29839,0.0631 13.69786,0.047 14.32,-0.57514 z M 39.680001,156.13517 c -5.542516,-0.22078 -6.786796,-0.66813 -9.198689,-3.30712 -3.091583,-3.38269 -2.789861,1.32041 -2.886123,-44.98751 l -0.08481,-40.799456 0.97657,-1.983697 c 1.034377,-2.101116 3.046183,-4.134735 5.273053,-5.330222 1.231198,-0.660965 1.761913,-0.693264 13.92,-0.847164 l 12.64,-0.16 0.167687,-7.2 c 0.187252,-8.040052 0.304929,-8.550739 2.448178,-10.624376 1.63876,-1.585533 3.307757,-2.23371 5.704247,-2.215317 2.482626,0.01906 4.484106,0.853317 5.890754,2.4554 1.958516,2.230627 2.083371,2.812031 2.264354,10.544293 l 0.16478,7.04 h 8.314572 8.314572 l 0.229901,-1.28 c 0.126446,-0.704 0.230891,-9.965956 0.232099,-20.582125 l 0.0022,-19.302125 0.794991,-1.657875 c 1.104298,-2.302907 1.97649,-3.219719 4.144162,-4.356175 1.584961,-0.830956 2.223751,-0.981221 4.160001,-0.978575 3.86859,0.0053 6.8564,1.886281 8.41951,5.300557 l 0.74513,1.627577 0.008,20.340383 c 0.006,16.862534 0.0829,20.402829 0.44775,20.705601 0.30985,0.257152 2.72259,0.338223 8.154,0.273988 6.00657,-0.07104 7.71387,-0.0027 7.71368,0.308769 -4.1e-4,0.639726 -16.09895,0.572234 -16.63173,-0.06973 -0.29996,-0.361428 -0.36433,-5.101706 -0.27918,-20.560001 0.10319,-18.735534 0.0716,-20.20232 -0.46896,-21.751897 C 110.1212,13.472585 106.88231,11.2 103.36708,11.2 c -3.625141,0 -6.178038,1.526203 -7.689922,4.597276 l -1.0006,2.032506 0.03152,20.477793 c 0.02649,17.208934 -0.04013,20.537259 -0.417354,20.850326 -0.323079,0.268132 -2.904125,0.348653 -9.209802,0.287317 l -8.760925,-0.08522 -0.16,-7.36 c -0.158877,-7.308344 -0.166132,-7.370432 -1.033724,-8.846273 -1.152351,-1.96024 -2.474477,-3.0304 -4.479531,-3.625837 -2.030546,-0.603007 -2.300609,-0.603701 -4.296342,-0.01103 -1.82446,0.541807 -3.62716,2.11503 -4.593089,4.008406 -0.577807,1.132595 -0.637314,1.890385 -0.637314,8.115816 0,3.776617 -0.08741,7.094353 -0.194237,7.372748 C 60.753382,59.463039 59.370183,59.52 48.634235,59.52 c -11.670563,0 -12.161786,0.02468 -13.925731,0.699705 -2.314543,0.885725 -4.52487,3.017157 -5.684575,5.48167 l -0.875891,1.861376 0.08598,40.378629 c 0.09768,45.87338 -0.206715,41.25063 2.931433,44.51878 1.196926,1.2465 2.147925,1.89055 3.552059,2.40556 l 1.917512,0.7033 64.680718,0.0181 64.68072,0.0181 1.76018,-0.80583 c 2.38214,-1.09058 4.1508,-2.76373 5.24871,-4.96525 L 173.92,148 V 107.52 67.040001 l -0.68845,-1.472937 c -0.96371,-2.061834 -2.41909,-3.613858 -4.53672,-4.837983 l -1.81483,-1.04908 -10.95782,-0.09561 -10.95782,-0.09561 -0.16052,-0.704386 c -0.0883,-0.387413 -0.19727,-3.512387 -0.24218,-6.944387 -0.0808,-6.17582 -0.0908,-6.255522 -0.96879,-7.749157 -2.18853,-3.723031 -6.91584,-5.162916 -10.72253,-3.265963 -1.88591,0.93979 -3.09293,2.228002 -3.9996,4.268638 -0.6414,1.443608 -0.64957,2.991803 -0.0398,7.546482 0.33437,2.497531 -0.12611,1.531045 -0.69678,-1.462457 -0.28283,-1.483649 -0.43161,-3.308653 -0.3306,-4.055566 0.69923,-5.170685 5.98216,-8.730175 10.8548,-7.313662 2.35509,0.684645 4.25363,2.196077 5.46623,4.351685 l 0.99006,1.76 0.003,6.4 0.003,6.4 10.88,0.16 c 10.47594,0.154058 10.93438,0.186796 12.34418,0.881525 2.25075,1.109129 3.91351,2.712077 5.11827,4.934151 l 1.0969,2.024317 V 107.52 v 40.8 l -0.8794,1.66819 c -1.59907,3.03335 -3.70303,4.85774 -6.73155,5.83709 -0.93514,0.30239 -15.03867,0.40333 -61.92,0.44315 -33.389979,0.0284 -62.797049,-0.0316 -65.349049,-0.13326 z m -2.4,-6.02908 c -1.621935,-0.39696 -2.371229,-0.95519 -3.038955,-2.26404 -0.631109,-1.23707 -0.641045,-1.86666 -0.641045,-40.61817 V 67.862271 l 0.958527,-1.091703 c 0.52719,-0.600436 1.35519,-1.255602 1.84,-1.455924 0.618033,-0.25537 4.42001,-0.338882 12.721473,-0.279433 l 11.84,0.08479 0.16,16.96 C 61.23922,94.717225 61.180954,99.488591 60.8914,100.8 c -0.213731,0.968 -0.393731,2.63173 -0.4,3.69717 -0.04299,7.30494 8.889525,10.84129 13.970496,5.53087 2.156038,-2.2534 2.85325,-5.42816 1.889401,-8.6034 -0.360364,-1.18716 -0.414637,-4.607503 -0.294507,-18.559999 0.081,-9.407552 0.2057,-17.286889 0.277115,-17.509637 0.101546,-0.316729 2.101861,-0.386473 9.177971,-0.32 l 9.048125,0.085 0.161252,4.64 c 0.174056,5.008437 0.602507,6.557847 2.315963,8.375237 1.043635,1.106939 3.559584,2.358212 5.270524,2.621225 1.93974,0.298185 5.16412,-0.819866 6.68327,-2.317422 2.07902,-2.049455 2.50517,-3.425526 2.68774,-8.67904 l 0.16125,-4.64 8.29771,-0.08552 c 6.42498,-0.06622 8.35579,0.006 8.5551,0.32 0.14156,0.223035 0.2604,5.445519 0.26408,11.605519 0.004,7.00099 0.13595,11.665576 0.35149,12.441829 0.21121,0.760685 0.94121,1.838236 1.88413,2.781152 3.75677,3.756777 9.51976,3.079898 12.31992,-1.447008 l 0.96757,-1.564233 0.16,-12.02587 0.16,-12.02587 h 10.29694 c 9.90085,0 10.3309,0.02538 11.18022,0.659772 0.48582,0.362875 1.1802,1.057479 1.54307,1.543564 0.65798,0.88139 0.65977,0.990506 0.65977,40.163681 v 39.2799 l -0.87506,1.32222 c -0.62268,0.94086 -1.22258,1.42303 -2.08,1.67178 -0.79008,0.22921 -4.62036,0.31677 -11.12494,0.25432 l -9.92,-0.0952 -0.16,-20.49061 -0.16,-20.49062 -1.13304,-1.57711 c -2.11586,-2.9451 -5.66024,-4.02522 -8.94696,-2.72653 -2.11218,0.8346 -2.68375,1.31747 -3.79316,3.20448 L 129.44,109.28 l -0.16,20.32 -0.16,20.32 h -9.28 -9.28 l -0.16,-24.64 c -0.18012,-27.739178 -0.006,-25.900001 -2.66056,-28.171838 -1.48667,-1.272537 -2.899,-1.746821 -5.17944,-1.739348 -3.241775,0.01062 -6.090871,2.278946 -7.063111,5.623336 -0.475255,1.63482 -0.51697,4.19902 -0.412785,25.37323 l 0.115897,23.55462 -8.64,0.16282 c -4.752,0.0896 -9,0.079 -9.44,-0.0234 l -0.8,-0.18626 v -11.33655 c 0,-11.00522 -0.02019,-11.37397 -0.690693,-12.61656 -1.456336,-2.69889 -4.115419,-4.32413 -7.056559,-4.31297 -2.267959,0.009 -3.994875,0.75983 -5.597124,2.43483 -2.161351,2.25947 -2.175624,2.35558 -2.175624,14.64898 0,8.47371 -0.09274,11.09142 -0.4,11.29028 -0.505081,0.32689 -21.824127,0.44213 -23.12,0.12497 z m 22.49433,-0.7855 c 0.288443,-0.17827 0.386458,-2.95628 0.388796,-11.01947 0.0031,-10.63653 0.01319,-10.80274 0.753863,-12.39331 0.937486,-2.01323 3.254569,-4.09348 5.150921,-4.62442 0.788888,-0.22088 2.291186,-0.33962 3.338439,-0.26386 3.460922,0.25034 6.645954,2.99347 7.364184,6.34247 0.211331,0.98539 0.349467,5.67092 0.349467,11.85375 V 149.44 l 0.96,0.007 c 0.528,0.004 3.912,0.007 7.52,0.007 3.608,0 7.059671,-0.003 7.670379,-0.007 l 1.110378,-0.007 0.08962,-24.24 c 0.07974,-21.56823 0.146933,-24.36601 0.609591,-25.383271 2.971372,-6.53325 11.989541,-6.85881 15.135151,-0.546387 l 0.82488,1.655318 0.005,23.85717 c 0.003,13.12145 0.11484,24.03012 0.2492,24.2415 0.29476,0.46371 16.58838,0.66119 17.04301,0.20656 0.15745,-0.15745 0.32395,-9.19674 0.37349,-20.27749 0.0989,-22.11936 -0.0283,-20.78641 2.19703,-23.0118 1.73377,-1.73377 3.37406,-2.40259 5.89237,-2.40259 2.5622,0 4.16478,0.67429 5.78237,2.43295 2.39301,2.6017 2.19855,0.71587 2.38697,23.14804 0.0931,11.088 0.20114,20.196 0.24,20.24 0.21174,0.23972 19.67451,0.0323 20.32932,-0.21667 0.42917,-0.16318 1.12255,-0.84718 1.54083,-1.52 L 167.84,146.4 v -38.88 c 0,-38.085296 -0.0129,-38.901253 -0.6289,-39.919848 -1.14499,-1.893145 -2.03315,-2.028557 -12.6511,-1.928822 L 145.12,65.76 144.96,77.6 c -0.15558,11.513289 -0.17946,11.870905 -0.86531,12.96 -1.17528,1.866279 -2.34974,2.922301 -4.18398,3.76204 -2.93927,1.345644 -6.52421,0.643123 -8.9142,-1.746867 C 128.76228,90.340949 128.81686,90.6878 128.64,77.600001 l -0.16,-11.84 h -8 -8 l -0.16003,4.8 c -0.12555,3.765915 -0.28195,5.023121 -0.72598,5.835681 -2.2082,4.040945 -6.6951,6.027756 -10.94695,4.847347 -2.496412,-0.693059 -4.258564,-2.166102 -5.462183,-4.566022 -1.054491,-2.102571 -1.104856,-2.35967 -1.104856,-5.64 0,-1.890353 -0.09,-3.887006 -0.2,-4.437006 l -0.2,-1 h -8.44 -8.44 v 17.643105 c 0,11.86591 0.119807,18.293324 0.365882,19.628814 0.544682,2.9561 -0.219117,5.17061 -2.613541,7.57754 -2.018033,2.02857 -3.207229,2.50595 -6.249511,2.50876 -3.582774,0.003 -6.864649,-2.39169 -8.012358,-5.84712 -0.41523,-1.25014 -0.474059,-2.06037 -0.269737,-3.71497 0.143723,-1.16387 0.269853,-10.108129 0.28029,-19.876129 l 0.01897,-17.76 -10.88,-0.09234 c -5.984,-0.05079 -11.343838,-0.009 -11.91075,0.09276 -0.566913,0.101807 -1.538913,0.664363 -2.160001,1.250124 l -1.129249,1.065019 v 39.098106 c 0,41.89383 -0.07284,39.95243 1.554132,41.42481 0.362811,0.32834 1.133553,0.70498 1.712762,0.83697 1.348529,0.30731 21.754662,0.20204 22.267436,-0.11487 z M 191.01932,101.1676 c -0.57998,-0.46964 -0.76109,-1.00018 -0.87392,-2.560003 l -0.14232,-1.967596 H 188.267 c -1.41659,0 -1.88064,-0.144551 -2.52154,-0.785454 -0.432,-0.432 -0.78546,-1.086546 -0.78546,-1.454546 0,-0.368 0.35346,-1.022545 0.78546,-1.454545 0.64508,-0.645087 1.10258,-0.785455 2.56,-0.785455 H 190.08 l 0.005,-1.52 c 0.006,-1.896176 0.55588,-3.020393 1.66919,-3.411925 1.83818,-0.646453 3.11926,0.949377 3.12431,3.891925 l 0.002,1.04 h 1.76 c 2.03496,0 3.04314,0.717489 3.0351,2.16 -0.009,1.599648 -1.04412,2.32 -3.33406,2.32 -1.43465,0 -1.46107,0.01878 -1.46282,1.04 -0.006,3.398299 -1.87877,5.091009 -3.8589,3.487599 z m 2.72254,-0.7588 c 0.29493,-0.421074 0.49814,-1.386166 0.49814,-2.365764 0,-1.892159 0.18733,-2.043035 2.53658,-2.043035 1.82078,0 2.77631,-0.787895 2.46411,-2.031809 -0.23355,-0.930546 -0.75767,-1.176352 -3.08069,-1.444803 l -1.76,-0.203388 -0.16,-1.887958 c -0.13382,-1.579127 -0.30095,-1.992787 -1.02168,-2.528805 -0.81098,-0.60314 -0.90893,-0.60989 -1.66466,-0.114715 -0.69381,0.454603 -0.81594,0.798399 -0.89832,2.528805 l -0.0953,2.002673 -1.98712,0.190128 c -2.27864,0.21802 -2.97288,0.653554 -2.97288,1.865055 0,1.265996 0.56535,1.624817 2.56,1.624817 0.9856,0 1.9648,0.1728 2.176,0.384 0.2112,0.2112 0.384,1.1904 0.384,2.176 0,0.9856 0.1728,1.964799 0.384,2.175999 0.6365,0.6365 2.08906,0.45632 2.63786,-0.3272 z M 63.477945,28.812195 C 61.670504,27.775539 59.862646,25.848262 59.00739,24.046333 58.702921,23.40485 58.391501,21.872 58.315346,20.64 c -0.254994,-4.125194 1.785458,-7.612647 5.533001,-9.456767 2.271629,-1.11784 6.360885,-1.126108 8.530161,-0.01724 3.36244,1.718769 5.451121,5.128586 5.437136,8.876246 -0.01501,4.021097 -1.723684,6.907929 -5.133479,8.673071 -1.825601,0.945054 -2.282474,1.044409 -4.790123,1.041693 -2.479877,-0.0027 -2.945108,-0.102266 -4.414097,-0.944803 z m 7.662667,-0.337457 c 1.963769,-0.73474 4.319057,-2.866919 5.186733,-4.695411 0.85171,-1.794847 1.003976,-5.203991 0.315343,-7.060379 -1.259214,-3.394538 -4.800144,-5.830482 -8.482687,-5.835569 -7.06357,-0.0098 -11.416104,7.272895 -7.982674,13.356599 1.084537,1.921695 1.322591,2.174976 3.227302,3.433731 2.332365,1.541377 5.014846,1.819137 7.735983,0.801029 z M 65.060236,26.100971 C 60.892803,24.160637 60.196035,18.28237 63.762321,15.15113 c 4.155398,-3.648487 10.69403,-0.78559 10.895203,4.770394 0.189739,5.240201 -4.764012,8.429794 -9.597288,6.179447 z m 6.109609,-1.0766 c 1.909331,-1.32046 2.530091,-2.35856 2.684176,-4.488763 0.152386,-2.106717 -0.393982,-3.551432 -1.812217,-4.79189 -3.232792,-2.827561 -7.436877,-1.90158 -9.445271,2.080391 -1.89629,3.759705 1.926289,8.826562 6.203468,8.222745 0.616,-0.08696 1.68243,-0.547079 2.369844,-1.022483 z"
         id="path2812" />
      <path
         style="fill:#000001"
         d="m 0,170.56792 v -34.23208 l 0.8208319,0.31208 c 0.4514576,0.17165 1.3874576,0.31208 2.08,0.31208 h 1.2591682 v 1.46104 c 0,2.34521 0.7146438,3.32557 2.430404,3.33406 1.4622485,0.007 2.049596,-0.8358 2.049596,-2.94183 v -1.77635 l 1.9080089,-0.13801 C 12.829173,136.73391 13.76,136.0561 13.76,134.56 c 0,-1.46573 -0.876822,-2.10413 -3.176359,-2.31264 l -1.9436409,-0.17625 v -1.82596 c 0,-2.09589 -0.5791418,-2.88825 -2.105197,-2.88025 -1.6481024,0.009 -2.374803,1.01642 -2.374803,3.29335 v 1.42033 L 2.64,132.24054 c -0.836,0.0891 -1.77199999,0.26681 -2.07999999,0.39495 C 0.02771678,132.85694 0,129.58036 0,66.434237 V 0 H 102.4 204.8 V 102.4 204.8 H 102.4 0 Z m 183.36,9.94665 c 0.44,-0.1219 0.99705,-0.63071 1.23788,-1.1307 0.67924,-1.41015 -0.0103,-2.377 -3.63788,-5.1006 -1.76,-1.32143 -4.21791,-3.17929 -5.46202,-4.12857 -1.2441,-0.94928 -4.09064,-3.12209 -6.32563,-4.82846 -2.23499,-1.70638 -4.52909,-3.3863 -5.09799,-3.73317 -1.02017,-0.62203 -1.91545,-0.63069 -65.284636,-0.63187 -53.335726,-9.9e-4 -64.425204,0.0725 -65.280001,0.43238 -0.91189,0.38396 -15.640277,15.17474 -16.329237,16.39841 -0.411902,0.73158 0.07153,1.72026 1.168086,2.3889 0.992075,0.60492 2.572786,0.61613 82.611428,0.58602 44.88,-0.0169 81.96,-0.13044 82.4,-0.25234 z M 20.8,177.93879 c 0,-0.42399 11.031961,-11.69341 12.908736,-13.1866 l 1.548735,-1.23219 62.771266,0.008 c 34.524193,0.004 63.277193,0.12535 63.895543,0.26922 0.99973,0.23261 3.87938,2.33456 17.19572,12.55172 0.924,0.70896 1.68,1.42455 1.68,1.59022 0,0.18747 -30.20751,0.3012 -80,0.3012 -49.793829,0 -80,-0.11373 -80,-0.30121 z m 98.7652,-3.71489 c 0.63505,-0.63506 0.76913,-1.00776 0.60439,-1.68 -0.46846,-1.91163 0.44686,-1.8218 -18.82147,-1.84701 -9.717466,-0.0127 -17.988097,0.0902 -18.379181,0.22868 -1.35302,0.47912 -1.352555,3.2435 6.36e-4,3.788 0.390734,0.15723 8.600972,0.29499 18.244975,0.30615 l 17.53454,0.0203 z m 47.38385,-18.39862 c 3.02852,-0.97935 5.13248,-2.80374 6.73155,-5.83709 L 174.56,148.32 v -40.8 -40.799999 l -1.09755,-2.024324 c -1.20476,-2.222074 -2.86752,-3.825022 -5.11827,-4.934151 C 166.93438,59.066797 166.47594,59.034059 156,58.880001 l -10.88,-0.16 -0.003,-6.4 -0.003,-6.4 -0.99006,-1.76 c -1.2126,-2.155608 -3.11114,-3.66704 -5.46623,-4.351685 -4.81729,-1.400423 -10.02591,2.043811 -10.84593,7.171938 -0.11676,0.730179 0.0248,2.549718 0.33185,4.266446 0.29449,1.646315 0.49049,4.001301 0.43557,5.233301 l -0.0999,2.24 -7.64012,0.08589 c -5.30442,0.05963 -7.77268,-0.02413 -8.07374,-0.273987 -0.35635,-0.295749 -0.43499,-3.984263 -0.44131,-20.700257 l -0.008,-20.340383 -0.74513,-1.627577 c -1.56311,-3.414276 -4.55092,-5.29527 -8.41951,-5.300557 -1.93625,-0.0026 -2.57504,0.147619 -4.160004,0.978575 -2.167672,1.136456 -3.039864,2.053268 -4.144162,4.356175 l -0.794991,1.657875 -0.0022,19.302125 c -0.0012,10.616169 -0.105653,19.878125 -0.232099,20.582125 l -0.229901,1.28 h -8.314572 -8.314572 l -0.16478,-7.04 c -0.180983,-7.732262 -0.305838,-8.313666 -2.264354,-10.544293 -1.406648,-1.602083 -3.408128,-2.436345 -5.890754,-2.4554 -2.39649,-0.01839 -4.065487,0.629784 -5.704247,2.215317 -2.143249,2.073637 -2.260926,2.584324 -2.448178,10.624376 l -0.167687,7.2 -12.64,0.16 c -12.158087,0.1539 -12.688802,0.186199 -13.92,0.847164 -2.22687,1.195487 -4.238676,3.229106 -5.273053,5.330222 l -0.97657,1.983697 0.08481,40.799452 c 0.09626,46.30792 -0.20546,41.60482 2.886123,44.98751 2.411893,2.63899 3.656173,3.08634 9.198689,3.30712 2.552,0.10166 31.95907,0.16163 65.349052,0.13326 46.88133,-0.0398 60.98486,-0.14076 61.92,-0.44315 z M 37.506895,149.43546 c -0.579209,-0.13199 -1.349951,-0.50863 -1.712762,-0.83697 -1.626968,-1.47238 -1.554132,0.46902 -1.554132,-41.42481 V 68.07557 l 1.129249,-1.065019 c 0.621088,-0.585761 1.593088,-1.148317 2.160001,-1.250124 0.566912,-0.101807 5.92675,-0.143551 11.91075,-0.09276 l 10.88,0.09234 -0.01897,17.76 c -0.01044,9.768 -0.136567,18.712263 -0.28029,19.876133 -0.204322,1.6546 -0.145493,2.46483 0.269737,3.71497 1.147709,3.45543 4.429584,5.85042 8.012358,5.84712 3.042282,-0.003 4.231478,-0.48019 6.249511,-2.50876 2.394424,-2.40693 3.158223,-4.62144 2.613541,-7.57754 -0.246075,-1.33549 -0.365882,-7.762908 -0.365882,-19.628818 V 65.600001 h 8.44 8.44 l 0.2,1 c 0.11,0.55 0.2,2.546653 0.2,4.437006 0,3.28033 0.05036,3.537429 1.104856,5.64 1.203619,2.39992 2.965771,3.872963 5.462178,4.566022 4.25185,1.180409 8.73875,-0.806402 10.94695,-4.847347 0.44403,-0.81256 0.60043,-2.069766 0.72599,-5.835681 l 0.16003,-4.8 h 8 7.99999 l 0.16,11.84 c 0.17686,13.087799 0.12228,12.740948 2.35651,14.975173 3.93264,3.932639 9.93403,3.009317 13.09818,-2.015173 0.68585,-1.089095 0.70973,-1.446711 0.86531,-12.96 l 0.16,-11.84 9.44,-0.08867 c 10.61795,-0.09973 11.50611,0.03568 12.6511,1.928822 0.61605,1.018595 0.6289,1.834552 0.6289,39.919847 v 38.88 l -0.76051,1.22333 c -0.41828,0.67282 -1.11166,1.35682 -1.54083,1.52 -0.65481,0.24895 -20.11758,0.45639 -20.32932,0.21667 -0.0389,-0.044 -0.14686,-9.152 -0.24,-20.24 -0.18842,-22.43217 0.006,-20.54634 -2.38697,-23.14804 -1.61759,-1.75866 -3.22017,-2.43295 -5.78237,-2.43295 -2.51831,0 -4.1586,0.66882 -5.89237,2.40259 -2.22538,2.22539 -2.09812,0.89244 -2.19703,23.0118 -0.0495,11.08075 -0.21604,20.12004 -0.37349,20.27749 -0.45463,0.45463 -16.74825,0.25715 -17.04301,-0.20656 -0.13436,-0.21138 -0.2465,-11.12005 -0.2492,-24.2415 l -0.005,-23.85717 -0.82488,-1.655317 C 107.06951,92.957919 98.051343,93.283479 95.079971,99.816729 94.617313,100.83399 94.550123,103.63177 94.47038,125.2 l -0.08962,24.24 -1.110378,0.007 c -0.610708,0.004 -4.062379,0.007 -7.670379,0.007 -3.608,0 -6.992,-0.003 -7.52,-0.007 l -0.96,-0.007 v -10.22425 c 0,-6.18283 -0.138136,-10.86836 -0.349467,-11.85375 -1.282264,-5.979 -8.985065,-8.45144 -13.619886,-4.3717 -0.822137,0.72367 -1.817447,2.0237 -2.233658,2.91751 -0.740668,1.59057 -0.750779,1.75678 -0.753863,12.39331 -0.0023,8.06319 -0.100353,10.8412 -0.388796,11.01947 -0.512774,0.31691 -20.918907,0.42218 -22.267436,0.11487 z M 193.60704,101.43624 c 0.66575,-0.3563 1.2684,-2.137098 1.27118,-3.756239 0.002,-1.021217 0.0282,-1.04 1.46282,-1.04 2.28994,0 3.32516,-0.720352 3.33406,-2.32 0.008,-1.442511 -1.00014,-2.16 -3.0351,-2.16 h -1.76 l -0.002,-1.04 c -0.005,-2.942548 -1.28613,-4.538378 -3.12431,-3.891925 -1.11331,0.391532 -1.6633,1.515749 -1.66919,3.411925 l -0.005,1.52 h -1.77454 c -1.45742,0 -1.91492,0.140368 -2.56,0.785455 -0.432,0.432 -0.78546,1.086545 -0.78546,1.454545 0,0.368 0.35346,1.022546 0.78546,1.454546 0.6409,0.640903 1.10495,0.785454 2.52154,0.785454 h 1.73608 l 0.14232,1.967596 c 0.11283,1.559823 0.29394,2.090363 0.87392,2.560003 0.81783,0.66224 1.68421,0.75218 2.58772,0.26864 z M 72.682165,28.715305 c 3.409795,-1.765142 5.118474,-4.651974 5.133479,-8.673071 0.01398,-3.74766 -2.074696,-7.157477 -5.437136,-8.876246 -2.169276,-1.108863 -6.258532,-1.100595 -8.530161,0.01724 -3.747543,1.84412 -5.787995,5.331573 -5.533001,9.456767 0.07615,1.232 0.387575,2.76485 0.692044,3.406333 0.855256,1.801929 2.663114,3.729206 4.470555,4.765862 1.468989,0.842537 1.93422,0.942116 4.414097,0.944803 2.507649,0.0027 2.964522,-0.09664 4.790123,-1.041693 z m -5.804236,-2.764306 c -1.780869,-0.563892 -2.842448,-1.359678 -3.795895,-2.845495 -1.581674,-2.464827 -1.287764,-4.88861 0.874499,-7.211714 2.738044,-2.941714 7.573035,-2.086148 9.480021,1.677518 0.737713,1.455966 0.542863,4.485521 -0.367439,5.712992 -1.506049,2.030791 -4.341889,3.252258 -6.191186,2.666699 z"
         id="path2811" />
    </g>
  </g>
</svg>
